<svg height="512" width="512" xmlns="http://www.w3.org/2000/svg"><rect id="backgroundrect" width="100%" height="100%" x="0" y="0" fill="none" stroke="none"/><g class="currentLayer" style=""><title>Layer 1</title><path d="m391.4041748046875,72.30867767333984 c-2.433593988418579,-3.355468988418579 -7.121094226837158,-4.101562976837158 -10.47265625,-1.667968988418579 c-3.355468988418579,2.429687023162842 -4.101562023162842,7.121092796325684 -1.667968988418579,10.47265625 c18.90625,26.0703125 28.90234375,56.9296875 28.90234375,89.2421875 c0,31.0078125 -9.171875,61.44921875 -26.51953125,88.0390625 c-25.65234375,39.31640625 -42.76171875,68.22265625 -46.72265625,110.1484375 c-0.4726569950580597,4.984375953674316 -3.9101569652557373,8.96484375 -8.46875,10.25 c-0.3007819950580597,0.05078199878334999 -0.6015629768371582,0.125 -0.8906260132789612,0.2148440033197403 c-0.7382810115814209,0.1445319950580597 -1.503906011581421,0.2226559966802597 -2.285156011581421,0.2226559966802597 h-134.5546875 c-0.78125,0 -1.546875,-0.07812400162220001 -2.289062976837158,-0.2226559966802597 c-0.2890619933605194,-0.0898440033197403 -0.5859370231628418,-0.1601559966802597 -0.890625,-0.2148440033197403 c-4.554687023162842,-1.285156011581421 -7.996092796325684,-5.265624046325684 -8.464842796325684,-10.25 c-3.960937976837158,-41.92578125 -21.0703125,-70.83203125 -46.72265625,-110.1484375 c-17.3515625,-26.58984375 -26.51953125,-57.03125 -26.51953125,-88.0390625 c0,-83.90234375 68.26171875,-152.1640625 152.1640625,-152.1640625 c38.72265625,0 75.61328125,14.554688453674316 103.88671875,40.98046875 c3.027343988418579,2.828125 7.769530773162842,2.667968988418579 10.601563453674316,-0.359375 c2.828125,-3.023437976837158 2.6679680347442627,-7.769532203674316 -0.359375,-10.601563453674316 c-31.05859375,-29.03125 -71.58984375,-45.01953125 -114.12890625,-45.01953125 c-92.17578125,0 -167.1640625,74.98828125 -167.1640625,167.1640625 c0,33.92578125 10.01171875,67.203125 28.95703125,96.234375 c24.4296875,37.4453125 40.71484375,64.8671875 44.3515625,103.36328125 c0.9023439884185791,9.53515625 6.605467796325684,17.45703125 14.59765625,21.4609375 v70.390625 c0,9.320313453674316 5.875,17.296875 14.117188453674316,20.4140625 c0.7343739867210388,18.30859375 15.855467796325684,32.97265625 34.33984375,32.97265625 h61.6015625 c18.484375,0 33.60546875,-14.664061546325684 34.33984375,-32.97265625 c8.242186546325684,-3.117187976837158 14.117186546325684,-11.08984375 14.117186546325684,-20.4140625 v-70.390625 c7.992187023162842,-4.003905773162842 13.69921875,-11.921875 14.59765625,-21.4609375 c3.636718988418579,-38.49609375 19.921875,-65.91796875 44.3515625,-103.359375 c18.9453125,-29.03515625 28.95703125,-62.3125 28.95703125,-96.23828125 c0,-35.49609375 -10.98046875,-69.40234375 -31.76171875,-98.046875 zm-152.66796875,351.05859375 h81.5234375 v13.68359375 h-128.515625 v-13.68359375 h16.99609375 c4.144530773162842,0 7.5,-3.359375 7.5,-7.5 c0,-4.144530773162842 -3.355468988418579,-7.5 -7.5,-7.5 h-16.99609375 v-14.13671875 h128.515625 v14.13671875 h-81.51953125 c-4.144532203674316,0 -7.5,3.355468988418579 -7.5,7.5 c0,4.140625 3.3554680347442627,7.5 7.496094226837158,7.5 zm75.0703125,45.24609375 c-0.046875,-0.0039059999398887157 -0.0898440033197403,-0.0039059999398887157 -0.1367190033197403,-0.0039059999398887157 c-0.03125,0 -0.0625,0 -0.09375,0 c-0.1054690033197403,0 -0.2109369933605194,0.0039059999398887157 -0.3164060115814209,0.011718999594449997 h-114.515625 c-0.1054690033197403,-0.003907000180333853 -0.2109380066394806,-0.007813000120222569 -0.3164060115814209,-0.011718999594449997 c-0.078125,0 -0.1601559966802597,0 -0.2382819950580597,0 c-3.585937023162842,-0.1914069950580597 -6.449217796325684,-3.171875 -6.449217796325684,-6.804687976837158 v-9.75390625 h128.51953125 v9.75390625 c0,3.636718988418579 -2.863281011581421,6.617187976837158 -6.453125,6.808594226837158 zm-27.00390625,31.578125 h-61.6015625 c-9.73046875,0 -17.80859375,-7.210937976837158 -19.16796875,-16.5703125 h99.9375 c-1.3593740463256836,9.359374046325684 -9.4375,16.5703125 -19.16796875,16.5703125 zm0,0 " id="svg_1" class="" fill="#ffffff" fill-opacity="1"/><path d="m338.33984375,210.3125 c0.2617189884185791,-0.921875 1.1445319652557373,-1.566406011581421 2.1445319652557373,-1.566406011581421 h6.074217796325684 c9.515625,0 17.2578125,-7.738282203674316 17.2578125,-17.25390625 v-11.117188453674316 c0,-9.51171875 -7.742187976837158,-17.25390625 -17.2578125,-17.25390625 h-6.496094226837158 c-0.9804679751396179,0 -1.8593740463256836,-0.6289060115814209 -2.132812023162842,-1.527343988418579 c-1.703125,-5.621094226837158 -3.996093988418579,-11.09765625 -6.820312023162842,-16.26953125 c-0.4648439884185791,-0.8515629768371582 -0.3007819950580597,-1.933593988418579 0.3984369933605194,-2.636718988418579 l4.660155773162842,-4.65625 c3.257812976837158,-3.261718988418579 5.054687976837158,-7.59375 5.054687976837158,-12.203125 s-1.796875,-8.94140625 -5.054687976837158,-12.19921875 l-7.863280773162842,-7.863280773162842 c-3.257812023162842,-3.257812976837158 -7.589844226837158,-5.050780773162842 -12.19921875,-5.050780773162842 s-8.94140625,1.7929680347442627 -12.203125,5.050780773162842 l-4.65625,4.660155773162842 c-0.6992179751396179,0.6992189884185791 -1.785156011581421,0.8671879768371582 -2.6367180347442627,0.3984380066394806 c-5.167969226837158,-2.820312976837158 -10.640625953674316,-5.117187976837158 -16.26953125,-6.820312976837158 c-0.8984370231628418,-0.2734369933605194 -1.527343988418579,-1.152343988418579 -1.527343988418579,-2.132812023162842 v-6.496094226837158 c0,-9.515625 -7.738280773162842,-17.2578125 -17.25390625,-17.2578125 h-11.117186546325684 c-9.515625,0 -17.25390625,7.742187023162842 -17.25390625,17.2578125 v6.074219226837158 c0,1 -0.6484370231628418,1.8828120231628418 -1.566406011581421,2.144531011581421 c-5.800780773162842,1.6484379768371582 -11.449217796325684,3.921875 -16.78125,6.753905773162842 c-0.8320310115814209,0.4414060115814209 -1.8984370231628418,0.265625 -2.589843988418579,-0.4257810115814209 l-4.152342796325684,-4.15625 c-3.261718988418579,-3.257812976837158 -7.59375,-5.054687023162842 -12.203125,-5.054687023162842 s-8.94140625,1.7968740463256836 -12.19921875,5.054687023162842 l-7.863280773162842,7.863280773162842 c-3.257812976837158,3.257812976837158 -5.054687976837158,7.589844226837158 -5.054687976837158,12.19921875 s1.796875,8.94140625 5.054687976837158,12.203125 l3.7304680347442627,3.726562023162842 c0.7109379768371582,0.7109379768371582 0.875,1.7968759536743164 0.3984380066394806,2.6445319652557373 c-3.058593988418579,5.441405773162842 -5.527344226837158,11.22265625 -7.332030773162842,17.17578125 c-0.2734380066394806,0.9101560115814209 -1.175781011581421,1.542968988418579 -2.1875,1.542968988418579 h-5 c-9.515625,0 -17.2578125,7.742187023162842 -17.2578125,17.25390625 v11.117188453674316 c0,9.515624046325684 7.742187976837158,17.25390625 17.2578125,17.25390625 h4.609375 c1.0117180347442627,0 1.8984370231628418,0.6367179751396179 2.15625,1.550781011581421 c1.75,6.152344226837158 4.191405773162842,12.117186546325684 7.265625,17.734375 c0.4492189884185791,0.8242189884185791 0.2734369933605194,1.894531011581421 -0.4296880066394806,2.597656011581421 l-3.210937023162842,3.210937976837158 c-3.257812976837158,3.257812023162842 -5.054687976837158,7.589844226837158 -5.054687976837158,12.199217796325684 c0,4.609375953674316 1.796875,8.941407203674316 5.054687976837158,12.203125953674316 l7.859375,7.859374046325684 c3.261718988418579,3.257812976837158 7.59375,5.054687976837158 12.203125,5.054687976837158 s8.94140625,-1.796875 12.199217796325684,-5.054687976837158 l3.214843988418579,-3.210937023162842 c0.6992189884185791,-0.703125 1.7695319652557373,-0.8789060115814209 2.59375,-0.4257810115814209 c5.617187976837158,3.070312023162842 11.585938453674316,5.515625 17.73828125,7.261717796325684 c0.9101560115814209,0.2578130066394806 1.5468740463256836,1.1445319652557373 1.5468740463256836,2.15625 v4.613282203674316 c0,9.515625 7.738282203674316,17.25390625 17.25390625,17.25390625 h11.117186546325684 c9.515625,0 17.25390625,-7.742187976837158 17.25390625,-17.25390625 v-5.003905773162842 c0,-1.011718988418579 0.6328129768371582,-1.9101569652557373 1.542968988418579,-2.1875 c5.957030773162842,-1.8046879768371582 11.734375,-4.273437976837158 17.17578125,-7.332032203674316 c0.8476570248603821,-0.4726560115814209 1.933593988418579,-0.3085939884185791 2.6445319652557373,0.3984380066394806 l3.726562023162842,3.7304680347442627 c3.261718988418579,3.257812976837158 7.59375,5.054687976837158 12.203125,5.054687976837158 s8.941407203674316,-1.796875 12.19921875,-5.054687976837158 l7.863280773162842,-7.859374046325684 c3.257812976837158,-3.261718988418579 5.054687976837158,-7.59375 5.054687976837158,-12.203125953674316 c0,-4.609374046325684 -1.796875,-8.94140625 -5.054687976837158,-12.199217796325684 l-4.152342796325684,-4.15625 c-0.6953129768371582,-0.6914060115814209 -0.8710939884185791,-1.7578129768371582 -0.4296880066394806,-2.589843988418579 c2.835937976837158,-5.332030773162842 5.105469226837158,-10.98046875 6.753905773162842,-16.78125 zm-14.429686546325684,-4.101562023162842 c-1.359375,4.785155773162842 -3.234375,9.445311546325684 -5.570312976837158,13.851561546325684 c-3.5625,6.703125 -2.328125,14.83203125 3.066406011581421,20.2265625 l4.152344226837158,4.15625 c0.8828129768371582,0.8789070248603821 0.8828129768371582,2.308593988418579 0.0039059999398887157,3.1875 l-7.863280773162842,7.859375953674316 c-0.8789060115814209,0.8789060115814209 -2.3085930347442627,0.8789060115814209 -3.1875,0 l-3.730468988418579,-3.726562976837158 c-5.445312023162842,-5.449219226837158 -13.917967796325684,-6.628905773162842 -20.6015625,-2.871093988418579 c-4.492187976837158,2.527343988418579 -9.26171875,4.5625 -14.179688453674316,6.054687976837158 c-7.175780773162842,2.175781011581421 -12.1875,8.976561546325684 -12.1875,16.54296875 v5 c0,1.2421870231628418 -1.0117180347442627,2.253906011581421 -2.253906011581421,2.253906011581421 h-11.117186546325684 c-1.2421879768371582,0 -2.2539069652557373,-1.011718988418579 -2.2539069652557373,-2.253906011581421 v-4.613282203674316 c0,-7.683594226837158 -5.121092796325684,-14.50390625 -12.449217796325684,-16.5859375 c-5.078125,-1.4414069652557373 -10.00390625,-3.457031011581421 -14.640625,-5.992187976837158 c-2.546875,-1.394531011581421 -5.355469226837158,-2.070312023162842 -8.148438453674316,-2.070312023162842 c-4.480469226837158,0 -8.9375,1.738281011581421 -12.246092796325684,5.050780773162842 l-3.214843988418579,3.210937976837158 c-0.546875,0.5468739867210388 -1.167968988418579,0.6601560115814209 -1.59375,0.6601560115814209 c-0.4257819950580597,0 -1.046875,-0.11328200250864029 -1.59375,-0.6601560115814209 l-7.863282203674316,-7.863282203674316 c-0.8789060115814209,-0.8789060115814209 -0.8789060115814209,-2.308593988418579 0,-3.1875 l3.210937976837158,-3.210937023162842 c5.382812023162842,-5.378907203674316 6.609375,-13.76953125 2.984375,-20.3984375 c-2.535156011581421,-4.636719226837158 -4.554687023162842,-9.5625 -5.996094226837158,-14.640625 c-2.082031011581421,-7.328125 -8.902342796325684,-12.449217796325684 -16.5859375,-12.449217796325684 h-4.613282203674316 c-1.2421870231628418,0 -2.253906011581421,-1.011718988418579 -2.253906011581421,-2.2539069652557373 v-11.117186546325684 c0,-1.2421879768371582 1.011718988418579,-2.253906011581421 2.253906011581421,-2.253906011581421 h5.003907203674316 c7.5625,0 14.367186546325684,-5.011719226837158 16.54296875,-12.1875 c1.488281011581421,-4.914062976837158 3.523437023162842,-9.6875 6.050780773162842,-14.179688453674316 c3.757812023162842,-6.683594226837158 2.578125,-15.15625 -2.867187976837158,-20.6015625 l-3.730468988418579,-3.730468988418579 c-0.8789060115814209,-0.8789070248603821 -0.8789060115814209,-2.308593988418579 0,-3.1875 l7.863282203674316,-7.863280773162842 c0.8789060115814209,-0.875 2.308593988418579,-0.8789070248603821 3.1875,0 l4.152344226837158,4.15625 c5.398437023162842,5.394530773162842 13.523436546325684,6.628905773162842 20.23046875,3.066406011581421 c4.402344226837158,-2.335937976837158 9.0625,-4.210937976837158 13.84765625,-5.570312976837158 c7.339844226837158,-2.085937023162842 12.46484375,-8.902342796325684 12.46484375,-16.578125 v-6.074217796325684 c0,-1.2421879768371582 1.011718988418579,-2.2539069652557373 2.257812976837158,-2.2539069652557373 h11.117186546325684 c1.2421879768371582,0 2.253906011581421,1.011718988418579 2.253906011581421,2.2539069652557373 v6.496092796325684 c0,7.65625 4.894532203674316,14.285157203674316 12.179688453674316,16.4921875 c4.644530773162842,1.40625 9.16015625,3.300781011581421 13.42578125,5.628905773162842 c6.65625,3.636718988418579 15.05859375,2.417968988418579 20.43359375,-2.957031011581421 l4.660155773162842,-4.660155773162842 c0.8789070248603821,-0.8789070248603821 2.308593988418579,-0.8789070248603821 3.1875,0 l7.859375,7.863280773162842 c0.8789060115814209,0.8789060115814209 0.8789060115814209,2.3085930347442627 0,3.1875 l-4.65625,4.65625 c-5.375,5.378905773162842 -6.59375,13.78125 -2.960937023162842,20.43359375 c2.332031011581421,4.269532203674316 4.226562023162842,8.789063453674316 5.632812023162842,13.429688453674316 c2.207031011581421,7.285155773162842 8.83203125,12.17578125 16.48828125,12.17578125 h6.496094226837158 c1.2421879768371582,0 2.253906011581421,1.015625 2.253906011581421,2.257812976837158 v11.117186546325684 c0,1.2421879768371582 -1.0117180347442627,2.2539069652557373 -2.253906011581421,2.2539069652557373 h-6.074217796325684 c-7.671875953674316,0.0039059999398887157 -14.488282203674316,5.128905773162842 -16.57421875,12.46875 zm0,0 " id="svg_2" class="" fill-opacity="1" fill="#ffffff"/><path d="m256,131.23046875 c-30.1640625,0 -54.703125,24.5390625 -54.703125,54.703125 c0,30.1640625 24.5390625,54.70703125 54.703125,54.70703125 c30.1640625,0 54.703125,-24.54296875 54.703125,-54.70703125 c0,-30.1640625 -24.5390625,-54.703125 -54.703125,-54.703125 zm0,94.41015625 c-21.89453125,0 -39.703125,-17.8125 -39.703125,-39.70703125 c0,-21.89453125 17.8125,-39.703125 39.703125,-39.703125 c21.890626907348633,0 39.703125,17.80859375 39.703125,39.703125 c0,21.89453125 -17.80859375,39.70703125 -39.703125,39.70703125 zm0,0 " id="svg_3" class="selected" fill-opacity="1" fill="#ffffff"/></g></svg>